<svg width="640" height="480" viewBox="0 0 640 480" xmlns="http://www.w3.org/2000/svg">
  <rect width="640" height="480" rx="28" fill="#f7f8fa"/>
  <rect x="60" y="60" width="520" height="360" rx="20" fill="#ffffff" stroke="#e7e9ec" stroke-width="2"/>
  <rect x="90" y="92" width="120" height="14" rx="7" fill="#e7e9ec"/>
  <rect x="90" y="118" width="80" height="10" rx="5" fill="#e7e9ec"/>
  <rect x="90" y="150" width="220" height="120" rx="12" fill="#fdecec"/>
  <polyline points="105,240 140,205 175,225 210,180 285,190" fill="none" stroke="#B00000" stroke-width="4" stroke-linecap="round" stroke-linejoin="round"/>
  <circle cx="140" cy="205" r="5" fill="#B00000"/>
  <circle cx="175" cy="225" r="5" fill="#B00000"/>
  <circle cx="210" cy="180" r="5" fill="#B00000"/>
  <rect x="330" y="150" width="220" height="120" rx="12" fill="#f7f8fa"/>
  <rect x="350" y="230" width="24" height="24" rx="4" fill="#B00000"/>
  <rect x="384" y="210" width="24" height="44" rx="4" fill="#8a0000"/>
  <rect x="418" y="190" width="24" height="64" rx="4" fill="#B00000"/>
  <rect x="452" y="170" width="24" height="84" rx="4" fill="#8a0000"/>
  <rect x="486" y="200" width="24" height="54" rx="4" fill="#B00000"/>
  <rect x="90" y="290" width="460" height="1" fill="#e7e9ec"/>
  <rect x="90" y="312" width="140" height="14" rx="7" fill="#e7e9ec"/>
  <rect x="90" y="338" width="460" height="10" rx="5" fill="#f0f1f3"/>
  <rect x="90" y="358" width="380" height="10" rx="5" fill="#f0f1f3"/>
  <circle cx="500" cy="330" r="34" fill="#B00000"/>
  <path d="M488 330 l8 8 16 -18" fill="none" stroke="#fff" stroke-width="4" stroke-linecap="round" stroke-linejoin="round"/>
</svg>
